<svg xmlns="http://www.w3.org/2000/svg" width="82.5" height="82.5" viewBox="0 0 82.5 82.5">
  <g id="Grupo_18" data-name="Grupo 18" transform="translate(-475.25 -2267.25)">
    <path id="Trazado_66" data-name="Trazado 66" d="M467.189,209.5h0a40.5,40.5,0,0,1-40.5-40.5h0a40.5,40.5,0,0,1,40.5-40.5h0a40.5,40.5,0,0,1,40.5,40.5h0A40.5,40.5,0,0,1,467.189,209.5Z" transform="translate(49.31 2139.495)" fill="none" stroke="#dd2b7f" stroke-miterlimit="10" stroke-width="1.5"/>
    <path id="Trazado_72" data-name="Trazado 72" d="M389.31,180.273h8.907V157.965h6.215l.663-7.469h-6.879v-4.254c0-1.761.354-2.458,2.058-2.458H405.1v-7.751h-6.169c-6.628,0-9.617,2.919-9.617,8.507V150.5h-4.634v7.563h4.634Z" transform="translate(122.045 2150.261)" fill="#dd2b7f"/>
  </g>
</svg>
