<svg id="Capa_1" data-name="Capa 1" xmlns="http://www.w3.org/2000/svg" viewBox="0 0 581.3 108.1"><defs><style>.cls-1{fill:#fff;}</style></defs><title>Logo Audio Hot 2.0 Blanco</title><path class="cls-1" d="M72.4,9.3a54.1,54.1,0,0,0-3.6,108.1v-14A32.9,32.9,0,0,1,39.4,70.7V63.3h7.4v7.4a25.7,25.7,0,0,0,51.3,0V63.3h7.3v7.4a32.8,32.8,0,0,1-29.3,32.7v14A54.1,54.1,0,0,0,72.4,9.3ZM90.8,70.7a18.4,18.4,0,0,1-36.7,0V41.3a18.4,18.4,0,0,1,36.7,0Z" transform="translate(-18.3 -9.3)"/><path class="cls-1" d="M84.2,53.8c-2.4-1.1-4.8-5.1-7.2-5.1s-3,1.2-4.6,1.2-2.2-1.2-4.6-1.2-4.9,4.3-7.2,5.2c-.1.1.1.3.6.8,2,2.3,3.2,8.5,11.2,8.5s9.6-6.8,11.5-8.8C84.2,54,84.3,53.9,84.2,53.8ZM72.9,58.6l-.5.6-.5-.6c-1.9-1.7-3.2-2.8-3.2-4.2a2,2,0,0,1,2.1-2,2.4,2.4,0,0,1,1.6.7,2.6,2.6,0,0,1,1.7-.7,2,2,0,0,1,2,2C76.1,55.8,74.9,56.9,72.9,58.6Z" transform="translate(-18.3 -9.3)"/><path class="cls-1" d="M503,25.8v83.1H491.3V73.1H450.9v35.8H439.2V25.8h11.7V61.5h40.4V25.8Z" transform="translate(-18.3 -9.3)"/><path class="cls-1" d="M519.4,99.9a29.7,29.7,0,0,1-9-21.8,29.7,29.7,0,0,1,9-21.8,30.8,30.8,0,0,1,43.7,0,29.7,29.7,0,0,1,9,21.8,30.7,30.7,0,0,1-30.8,30.8A30.1,30.1,0,0,1,519.4,99.9Zm8.2-35.6a19.2,19.2,0,0,0,0,27.5,19.1,19.1,0,0,0,27.4,0,19.4,19.4,0,0,0,0-27.5,19.3,19.3,0,0,0-27.4,0Z" transform="translate(-18.3 -9.3)"/><path class="cls-1" d="M578.2,38.5h11.4V48.7h10.1V60H589.6V88.8a8.4,8.4,0,0,0,2.5,6.2c1.7,1.7,4.2,2.6,7.6,2.6v11.3c-6.5,0-11.7-1.9-15.7-5.8a19.8,19.8,0,0,1-5.8-14.3Z" transform="translate(-18.3 -9.3)"/><path class="cls-1" d="M205.1,108.9H191.9l-6.3-15.6H151.9l-6.3,15.6H132.5l36.3-89.8ZM180.6,81.2,168.8,51.7,156.9,81.2Z" transform="translate(-18.3 -9.3)"/><path class="cls-1" d="M207,45.8h11.8V83.2a14.3,14.3,0,0,0,28.5,0V45.8h11.9v62.7H247.3v-3.3a26.1,26.1,0,0,1-40.3-22Z" transform="translate(-18.3 -9.3)"/><path class="cls-1" d="M297,108.9a30.7,30.7,0,0,1-30.9-30.8A30.9,30.9,0,0,1,297,47.2c8.5,0,15,2.2,19.4,6.7V19.1h11.4v89H316.4v-5.9C312,106.7,305.5,108.9,297,108.9Zm0-50.3a19.5,19.5,0,0,0-19.5,19.5,19.5,19.5,0,1,0,33.2-13.8A18.6,18.6,0,0,0,297,58.6Z" transform="translate(-18.3 -9.3)"/><path class="cls-1" d="M341.7,40.1a6.9,6.9,0,0,1-2.1-5.1,7.3,7.3,0,0,1,2.1-5.1,7.4,7.4,0,0,1,10.1,0,7.3,7.3,0,0,1,2.1,5.1,7.1,7.1,0,0,1-12.2,5.1Zm-.6,8.7h11.4v60.1H341.1Z" transform="translate(-18.3 -9.3)"/><path class="cls-1" d="M368.5,99.9a30.7,30.7,0,0,1,0-43.6,30.8,30.8,0,0,1,52.6,21.8,30.8,30.8,0,0,1-52.6,21.8Zm8.1-35.6a19.2,19.2,0,0,0,0,27.5,19.1,19.1,0,0,0,27.4,0,19.2,19.2,0,0,0,0-27.5,19.3,19.3,0,0,0-27.4,0Z" transform="translate(-18.3 -9.3)"/></svg>