<svg xmlns="http://www.w3.org/2000/svg" width="82.5" height="82.5" viewBox="0 0 82.5 82.5">
  <g id="Grupo_20" data-name="Grupo 20" transform="translate(-697.25 -2269.25)">
    <path id="Trazado_70" data-name="Trazado 70" d="M300.617,209.5h0a40.5,40.5,0,0,1-40.5-40.5h0a40.5,40.5,0,0,1,40.5-40.5h0a40.5,40.5,0,0,1,40.5,40.5h0A40.5,40.5,0,0,1,300.617,209.5Z" transform="translate(437.884 2141.495)" fill="none" stroke="#dd2b7f" stroke-miterlimit="10" stroke-width="1.5"/>
    <path id="Trazado_71" data-name="Trazado 71" d="M269.007,170.391a25.079,25.079,0,0,0,13.573,3.978c16.438,0,25.725-13.884,25.168-26.338a17.947,17.947,0,0,0,4.416-4.584,17.658,17.658,0,0,1-5.084,1.394,8.866,8.866,0,0,0,3.892-4.9,17.764,17.764,0,0,1-5.621,2.149,8.861,8.861,0,0,0-15.089,8.076,25.127,25.127,0,0,1-18.249-9.251,8.864,8.864,0,0,0,2.739,11.822,8.826,8.826,0,0,1-4.012-1.109,8.866,8.866,0,0,0,7.1,8.8,8.863,8.863,0,0,1-4,.149,8.857,8.857,0,0,0,8.27,6.15A17.806,17.806,0,0,1,269.007,170.391Z" transform="translate(447.915 2153.669)" fill="#dd2b7f"/>
  </g>
</svg>


