<svg xmlns="http://www.w3.org/2000/svg" width="82.5" height="82.5" viewBox="0 0 82.5 82.5">
  <g id="Grupo_19" data-name="Grupo 19" transform="translate(-586.25 -2267.25)">
    <path id="Trazado_66" data-name="Trazado 66" d="M467.189,209.5h0a40.5,40.5,0,0,1-40.5-40.5h0a40.5,40.5,0,0,1,40.5-40.5h0a40.5,40.5,0,0,1,40.5,40.5h0A40.5,40.5,0,0,1,467.189,209.5Z" transform="translate(160.31 2139.495)" fill="none" stroke="#dd2b7f" stroke-miterlimit="10" stroke-width="1.5"/>
    <g id="Grupo_8" data-name="Grupo 8" transform="translate(605.294 2286.294)">
      <path id="Trazado_67" data-name="Trazado 67" d="M457.491,141.1c5.929,0,6.631.023,8.975.13a12.3,12.3,0,0,1,4.122.766,7.34,7.34,0,0,1,4.214,4.214,12.3,12.3,0,0,1,.766,4.122c.106,2.343.13,3.045.13,8.974s-.023,6.631-.13,8.972a12.307,12.307,0,0,1-.766,4.124,7.34,7.34,0,0,1-4.214,4.214,12.263,12.263,0,0,1-4.122.764c-2.343.106-3.043.13-8.975.13s-6.631-.023-8.972-.13a12.279,12.279,0,0,1-4.124-.764,7.356,7.356,0,0,1-4.214-4.214,12.267,12.267,0,0,1-.764-4.124c-.106-2.341-.13-3.043-.13-8.972s.023-6.631.13-8.974a12.264,12.264,0,0,1,.764-4.122A7.356,7.356,0,0,1,444.394,142a12.32,12.32,0,0,1,4.124-.766c2.341-.106,3.043-.13,8.972-.13m0-4c-6.031,0-6.787.028-9.155.134a16.315,16.315,0,0,0-5.391,1.032,11.355,11.355,0,0,0-6.493,6.5,16.256,16.256,0,0,0-1.032,5.391c-.109,2.369-.134,3.124-.134,9.155s.026,6.787.134,9.155a16.256,16.256,0,0,0,1.032,5.391,11.355,11.355,0,0,0,6.493,6.5,16.372,16.372,0,0,0,5.391,1.032c2.369.106,3.124.132,9.155.132s6.787-.026,9.155-.132a16.372,16.372,0,0,0,5.391-1.032,11.367,11.367,0,0,0,6.5-6.5,16.316,16.316,0,0,0,1.032-5.391c.109-2.369.134-3.124.134-9.155s-.025-6.787-.134-9.155a16.316,16.316,0,0,0-1.032-5.391,11.367,11.367,0,0,0-6.5-6.5,16.315,16.315,0,0,0-5.391-1.032c-2.369-.106-3.124-.134-9.155-.134" transform="translate(-435.286 -137.101)" fill="#dd2b7f"/>
      <path id="Trazado_68" data-name="Trazado 68" d="M451.765,142.178a11.4,11.4,0,1,0,11.4,11.4,11.4,11.4,0,0,0-11.4-11.4m0,18.8a7.4,7.4,0,1,1,7.4-7.4,7.4,7.4,0,0,1-7.4,7.4" transform="translate(-429.559 -131.373)" fill="#dd2b7f"/>
      <path id="Trazado_69" data-name="Trazado 69" d="M455.367,143.378a2.664,2.664,0,1,1-2.664-2.664,2.664,2.664,0,0,1,2.664,2.664" transform="translate(-418.643 -133.025)" fill="#dd2b7f"/>
    </g>
  </g>
</svg>
